# xmcd
#
# Track frame offsets:
# 150
# 23171
# 55863
# 81768
# 114612
# 132855
# 149342
# 173535
# 194795
# 212021
# 221731
#
# Disc length: 3523 seconds
#
#
# Revision: 0
# Processed by: cddbd v1.5PL3 Copyright (c) Steve Scherf et al.
# Submitted via: FreeRIP 2.52 
#
DISCID=a20dc10b
DTITLE=Sting - ...All this time (live)
DYEAR=2001
DGENRE=
TTITLE0=Fragile
TTITLE1=A thousand years Perfect Love...Gone wrong
TTITLE2=All this time
TTITLE3=Don't stand so close to me when we dance
TTITLE4=Dianda
TTITLE5=Roxanne
TTITLE6=(If you love someone) Set them free
TTITLE7=Brand new day
TTITLE8=Fields of gold
TTITLE9=Shape of my heart
TTITLE10=If I ever lose my faith in you every breath you take
EXTD=Directo 11 Septiembre 2001
EXTT0=
EXTT1=
EXTT2=
EXTT3=
EXTT4=
EXTT5=
EXTT6=
EXTT7=
EXTT8=
EXTT9=
EXTT10=
PLAYORDER=
